<svg width="336" height="341" viewBox="0 0 336 341" fill="none" xmlns="http://www.w3.org/2000/svg">
<path d="M23.9263 95.8544L23.0258 287.271C23.0258 287.874 23.3046 288.453 23.8009 288.879C24.2972 289.306 24.9704 289.545 25.6723 289.545V289.545C26.3568 289.545 27.0144 289.316 27.5052 288.906C27.996 288.496 28.2813 287.938 28.3005 287.35L34.6596 96.1229L23.9263 95.8544Z" fill="#E1E1E6" stroke="#263238" stroke-linecap="round" stroke-linejoin="round"/>
<path d="M10.062 140.308L9.27673 338.077C9.27451 338.376 9.33522 338.672 9.45534 338.949C9.57547 339.225 9.75262 339.477 9.97647 339.688C10.2003 339.9 10.4664 340.067 10.7593 340.18C11.0522 340.294 11.3661 340.351 11.6827 340.349V340.349C12.3038 340.35 12.901 340.123 13.3495 339.717C13.7979 339.311 14.0628 338.757 14.0886 338.171L19.8529 140.56L10.062 140.308Z" fill="#E1E1E6" stroke="#263238" stroke-linecap="round" stroke-linejoin="round"/>
<path d="M311.994 95.8544L312.814 287.271C312.816 287.569 312.756 287.864 312.637 288.14C312.517 288.416 312.341 288.667 312.119 288.878C311.897 289.089 311.632 289.257 311.341 289.372C311.049 289.486 310.737 289.545 310.421 289.545V289.545C309.796 289.545 309.195 289.317 308.746 288.907C308.296 288.498 308.033 287.939 308.011 287.35L302.238 96.1229L311.994 95.8544Z" fill="#E1E1E6" stroke="#263238" stroke-linecap="round" stroke-linejoin="round"/>
<path d="M325.744 140.308L326.563 338.077C326.565 338.376 326.504 338.672 326.384 338.949C326.264 339.225 326.087 339.477 325.863 339.688C325.639 339.9 325.373 340.067 325.08 340.18C324.787 340.294 324.474 340.351 324.157 340.349V340.349C323.538 340.349 322.942 340.123 322.496 339.716C322.051 339.31 321.789 338.756 321.768 338.171L315.987 140.56L325.744 140.308Z" fill="#E1E1E6" stroke="#263238" stroke-linecap="round" stroke-linejoin="round"/>
<path d="M108.106 148.775L107.646 323.66C107.596 324.097 107.718 324.535 107.987 324.884C108.256 325.233 108.65 325.465 109.088 325.531V325.531C109.514 325.472 109.903 325.254 110.173 324.921C110.444 324.588 110.577 324.166 110.545 323.739L113.981 148.98L108.106 148.775Z" fill="#E1E1E6" stroke="#263238" stroke-linecap="round" stroke-linejoin="round"/>
<path d="M228.75 142.425L229.254 296.426C229.297 296.799 229.17 297.171 228.899 297.466C228.628 297.762 228.235 297.957 227.8 298.012C227.366 297.957 226.974 297.761 226.706 297.465C226.439 297.17 226.316 296.797 226.364 296.426L222.916 142.552L228.75 142.425Z" fill="#E1E1E6" stroke="#263238" stroke-linecap="round" stroke-linejoin="round"/>
<path d="M106.066 142.425L106.57 296.426C106.613 296.799 106.486 297.171 106.215 297.466C105.944 297.762 105.551 297.957 105.116 298.012C104.682 297.957 104.29 297.761 104.022 297.465C103.755 297.17 103.632 296.797 103.68 296.426L100.232 142.552L106.066 142.425Z" fill="#E1E1E6" stroke="#263238" stroke-linecap="round" stroke-linejoin="round"/>
<path d="M225.503 148.775L226.076 323.66C226.135 324.097 225.992 324.535 225.679 324.884C225.365 325.233 224.905 325.465 224.395 325.531C223.899 325.469 223.448 325.25 223.133 324.918C222.818 324.586 222.662 324.165 222.695 323.739L218.686 148.98L225.503 148.775Z" fill="#E1E1E6" stroke="#263238" stroke-linecap="round" stroke-linejoin="round"/>
<path d="M165.707 162C207.93 162 242.158 154.227 242.158 144.638C242.158 135.049 207.93 127.276 165.707 127.276C123.483 127.276 89.2547 135.049 89.2547 144.638C89.2547 154.227 123.483 162 165.707 162Z" fill="#E1E1E6" stroke="#263238" stroke-linecap="round" stroke-linejoin="round"/>
<path d="M104.425 139.516C111.967 139.902 119.449 141.046 126.759 142.931C136.5 145.782 153.68 151.467 157.683 151.467C161.686 151.467 160.552 136.665 160.552 133.832C160.552 130.998 109.012 129.273 102.707 129.273C96.4017 129.273 104.425 139.516 104.425 139.516Z" fill="#E1E1E6" stroke="#263238" stroke-linecap="round" stroke-linejoin="round"/>
<path d="M334.863 132.466L328.678 126.934L314.384 96.2053C313.706 94.8073 312.641 93.63 311.315 92.8107C309.988 91.9915 308.455 91.5642 306.893 91.5788H29.2614C27.6968 91.561 26.1596 91.9867 24.8298 92.8061C23.5001 93.6256 22.433 94.8047 21.7537 96.2053L3.9378 134.48L1 133.405V142.162L1.13744 142.06C1.31244 143.228 1.90924 144.294 2.81651 145.057C3.72378 145.82 4.87954 146.23 6.06815 146.208H330.069C331.321 146.237 332.535 145.781 333.455 144.937C334.375 144.093 334.929 142.927 335 141.684L334.863 132.466Z" fill="#5E5E61" stroke="#263238" stroke-linecap="round" stroke-linejoin="round"/>
<path d="M330.069 138.202H6.06831C5.26596 138.234 4.46864 138.062 3.75113 137.704C3.03361 137.346 2.41941 136.812 1.9661 136.154C1.51279 135.495 1.23521 134.733 1.15942 133.939C1.08362 133.144 1.21208 132.344 1.53274 131.612L21.7538 88.1987C22.4298 86.7955 23.4961 85.614 24.8266 84.7941C26.1571 83.9742 27.6961 83.5502 29.2616 83.5723H306.893C308.456 83.5535 309.991 83.9791 311.318 84.7988C312.646 85.6185 313.709 86.7981 314.384 88.1987L334.605 131.612C334.926 132.344 335.054 133.144 334.978 133.939C334.903 134.733 334.625 135.495 334.172 136.154C333.718 136.812 333.104 137.346 332.387 137.704C331.669 138.062 330.872 138.234 330.069 138.202V138.202Z" fill="#E1E1E6" stroke="#263238" stroke-linecap="round" stroke-linejoin="round"/>
<g style="mix-blend-mode:multiply" opacity="0.5">
<path d="M22.4752 109.043C22.4752 109.043 15.1393 114.045 19.7264 115.872C24.3135 117.699 77.0395 116.333 83.4649 114.506C89.8903 112.68 97.209 95.8297 97.209 93.0982C97.209 90.3667 87.9661 88.4035 84.5644 88.2498C81.1627 88.0962 36.2194 90.8106 36.2194 90.8106L22.4752 109.043Z" fill="#A8A8A8"/>
</g>
<g style="mix-blend-mode:multiply" opacity="0.5">
<path d="M165.088 127.276C202.311 127.276 232.486 121.666 232.486 114.745C232.486 107.825 202.311 102.215 165.088 102.215C127.865 102.215 97.6901 107.825 97.6901 114.745C97.6901 121.666 127.865 127.276 165.088 127.276Z" fill="#A8A8A8"/>
</g>
<path d="M20.4479 92.5349L20.6541 101.719L82.9322 102.334V91.7154L20.4479 92.5349Z" fill="#E1E1E6" stroke="#263238" stroke-linecap="round" stroke-linejoin="round"/>
<path d="M82.9323 102.334L91.9862 82.9406V77.2216L82.52 93.5592L82.9323 102.334Z" fill="#E1E1E6" stroke="#263238" stroke-linecap="round" stroke-linejoin="round"/>
<path d="M20.4479 100.9L20.6541 110.102L82.9322 110.716V100.098L20.4479 100.9Z" fill="#E1E1E6" stroke="#263238" stroke-linecap="round" stroke-linejoin="round"/>
<path d="M82.9323 110.716L91.9862 91.3058V85.5867L82.52 101.924L82.9323 110.716Z" fill="#E1E1E6" stroke="#263238" stroke-linecap="round" stroke-linejoin="round"/>
<path d="M44.5002 69.2489C44.5002 69.2489 45.9434 66.398 43.8818 65.1688C41.8201 63.9397 39.5695 66.876 38.3326 67.8149C37.0956 68.7539 11.205 85.7915 10.3804 88.4547C9.55574 91.1179 10.3804 96.9906 15.9296 97.6393C21.4788 98.288 26.4095 94.5834 28.8835 93.9689C31.3574 93.3543 32.3195 93.1494 32.3195 93.1494L49.3794 70.2733L44.5002 69.2489Z" fill="#00AAFF" stroke="#263238" stroke-linecap="round" stroke-linejoin="round"/>
<path d="M15.9296 97.6564C21.4788 98.271 26.4095 94.6006 28.8834 93.986C31.3574 93.3714 32.3195 93.1665 32.3195 93.1665L32.9379 92.3301L16.9088 89.0864C16.0374 88.2708 14.917 87.7674 13.7251 87.6561C12.5332 87.5447 11.3379 87.8318 10.3288 88.4718C9.5557 91.1009 10.3804 97.0248 15.9296 97.6564Z" fill="#E1E1E6" stroke="#263238" stroke-linecap="round" stroke-linejoin="round"/>
<path d="M16.9603 89.1206H65.0648C80.0803 89.1206 84.5987 88.3011 84.5987 88.3011L93.8416 69.3003C93.8416 69.3003 64.6353 71.144 55.6157 70.5294C51.8886 70.4227 48.1767 70.0116 44.5174 69.3003L16.9603 89.1206Z" fill="#00AAFF" stroke="#263238" stroke-linecap="round" stroke-linejoin="round"/>
<path d="M16.9603 89.1205L17.785 92.7909C17.785 92.7909 56.8355 92.9958 67.1093 92.9958C77.383 92.9958 85.2 93.4056 85.2 93.4056L84.5815 88.284L16.9603 89.1205Z" fill="#E1E1E6" stroke="#263238" stroke-linecap="round" stroke-linejoin="round"/>
<path d="M85.1999 93.3543L93.8244 73.7388V69.249L84.5814 88.2498L85.1999 93.3543Z" fill="#E1E1E6" stroke="#263238" stroke-linecap="round" stroke-linejoin="round"/>
<path d="M223.947 116.299H106.177C105.916 116.301 105.657 116.252 105.416 116.154C105.174 116.057 104.954 115.912 104.769 115.73C104.584 115.547 104.437 115.33 104.336 115.091C104.236 114.851 104.184 114.595 104.184 114.336C104.184 114.076 104.236 113.82 104.336 113.58C104.437 113.341 104.584 113.124 104.769 112.941C104.954 112.759 105.174 112.614 105.416 112.517C105.657 112.419 105.916 112.37 106.177 112.372H223.947C224.207 112.37 224.465 112.419 224.706 112.517C224.947 112.615 225.165 112.759 225.349 112.942C225.533 113.125 225.679 113.342 225.777 113.582C225.876 113.821 225.925 114.077 225.923 114.336C225.925 114.594 225.876 114.85 225.777 115.09C225.679 115.329 225.533 115.546 225.349 115.729C225.165 115.912 224.947 116.056 224.706 116.154C224.465 116.252 224.207 116.301 223.947 116.299V116.299Z" fill="#161E22" stroke="#263238" stroke-linecap="round" stroke-linejoin="round"/>
<path d="M225.081 112.338H105.301C104.863 112.339 104.441 112.173 104.121 111.875C103.802 111.576 103.609 111.168 103.583 110.733L97.0716 32.9715C97.0423 32.7307 97.065 32.4865 97.1381 32.2551C97.2112 32.0237 97.3331 31.8105 97.4957 31.6296C97.6582 31.4487 97.8577 31.3042 98.0808 31.2059C98.3039 31.1076 98.5456 31.0577 98.7896 31.0595H231.61C231.854 31.0577 232.095 31.1076 232.318 31.2059C232.542 31.3042 232.741 31.4487 232.904 31.6296C233.066 31.8105 233.188 32.0237 233.261 32.2551C233.334 32.4865 233.357 32.7307 233.328 32.9715L226.816 110.733C226.79 111.171 226.595 111.582 226.272 111.881C225.949 112.179 225.522 112.343 225.081 112.338Z" fill="#161E22" stroke="#263238" stroke-linecap="round" stroke-linejoin="round"/>
<path d="M293.407 12.2976C295.244 10.8734 296.535 8.86727 297.066 6.61274C297.452 4.92188 297.411 3.16233 296.946 1.49121" stroke="#6C7D85" stroke-linecap="round" stroke-linejoin="round"/>
<g style="mix-blend-mode:multiply" opacity="0.5">
<path d="M284.748 117.699C295.128 117.699 303.543 114.229 303.543 109.948C303.543 105.668 295.128 102.197 284.748 102.197C274.368 102.197 265.953 105.668 265.953 109.948C265.953 114.229 274.368 117.699 284.748 117.699Z" fill="#A8A8A8"/>
</g>
<path d="M271.004 79.458C271.004 79.458 269.767 74.5584 265.661 76.1973C261.555 77.8362 261.967 88.6597 262.775 94.7884C263.582 100.917 269.148 98.0491 269.148 98.0491V94.3787C269.148 94.3787 267.104 96.0005 266.073 93.7641C265.042 91.5277 265.249 80.2774 266.279 80.4823C267.31 80.6871 269.355 84.1527 269.355 84.1527C269.355 84.1527 269.973 83.7601 271.004 79.458Z" fill="#00AAFF" stroke="#263238" stroke-linecap="round" stroke-linejoin="round"/>
<path d="M268.049 80.2774V107.114C268.049 110.272 275.35 112.833 284.37 112.833C293.389 112.833 300.674 110.272 300.674 107.114V80.2774H268.049Z" fill="#00AAFF" stroke="#263238" stroke-linecap="round" stroke-linejoin="round"/>
<path d="M300.674 80.2774C300.674 83.0088 293.372 85.2111 284.37 85.2111C275.367 85.2111 268.049 83.0088 268.049 80.2774C268.049 77.5459 275.35 75.3436 284.37 75.3436C293.389 75.3436 300.674 77.563 300.674 80.2774Z" fill="#E1E1E6" stroke="#263238" stroke-linecap="round" stroke-linejoin="round"/>
<path d="M298.543 80.2774C298.543 82.6503 292.187 84.5623 284.37 84.5623C276.553 84.5623 270.179 82.6503 270.179 80.2774C270.179 77.9044 276.536 75.9923 284.37 75.9923C292.204 75.9923 298.543 77.9044 298.543 80.2774Z" fill="#E1E1E6" stroke="#263238" stroke-linecap="round" stroke-linejoin="round"/>
<path d="M273.426 83.0089C280.567 85.0798 288.155 85.0798 295.297 83.0089C288.155 80.938 280.567 80.938 273.426 83.0089V83.0089Z" fill="#263238" stroke="#263238" stroke-linecap="round" stroke-linejoin="round"/>
<path d="M279.697 73.1755C279.697 73.1755 291.122 66.3468 287.394 58.545C283.666 50.7432 271.055 45.5705 271.055 33.4154C271.055 22.9334 282.274 19.0581 289.593 14.8584" stroke="#6C7D85" stroke-linecap="round" stroke-linejoin="round"/>
<path d="M290.246 72.9536C290.246 72.9536 296.619 68.7369 296.619 62.0448C296.619 57.5549 291.792 54.6185 285.418 47.3972" stroke="#6C7D85" stroke-linecap="round" stroke-linejoin="round"/>
<path d="M281.897 43.0268C281.897 43.0268 277.72 39.7661 280.797 33.6373" stroke="#6C7D85" stroke-linecap="round" stroke-linejoin="round"/>
</svg>
