<svg width="182" height="40" viewBox="0 0 182 40" fill="none" xmlns="http://www.w3.org/2000/svg">
<path d="M3.5 29C4.88071 29 6 27.8807 6 26.5C6 25.1193 4.88071 24 3.5 24C2.11929 24 1 25.1193 1 26.5C1 27.8807 2.11929 29 3.5 29Z" fill="#00AAFF"/>
<path d="M28.3672 14.7852H23.1406V29H19.625V14.7852H14.4688V11.9375H28.3672V14.7852ZM34.9414 29.2344C33.082 29.2344 31.5664 28.6641 30.3945 27.5234C29.2305 26.3828 28.6484 24.8633 28.6484 22.9648V22.6367C28.6484 21.3633 28.8945 20.2266 29.3867 19.2266C29.8789 18.2188 30.5742 17.4453 31.4727 16.9062C32.3789 16.3594 33.4102 16.0859 34.5664 16.0859C36.3008 16.0859 37.6641 16.6328 38.6562 17.7266C39.6562 18.8203 40.1562 20.3711 40.1562 22.3789V23.7617H32.082C32.1914 24.5898 32.5195 25.2539 33.0664 25.7539C33.6211 26.2539 34.3203 26.5039 35.1641 26.5039C36.4688 26.5039 37.4883 26.0312 38.2227 25.0859L39.8867 26.9492C39.3789 27.668 38.6914 28.2305 37.8242 28.6367C36.957 29.0352 35.9961 29.2344 34.9414 29.2344ZM34.5547 18.8281C33.8828 18.8281 33.3359 19.0547 32.9141 19.5078C32.5 19.9609 32.2344 20.6094 32.1172 21.4531H36.8281V21.1836C36.8125 20.4336 36.6094 19.8555 36.2188 19.4492C35.8281 19.0352 35.2734 18.8281 34.5547 18.8281ZM47.3633 26.5039C47.9883 26.5039 48.4961 26.332 48.8867 25.9883C49.2773 25.6445 49.4805 25.1875 49.4961 24.6172H52.6719C52.6641 25.4766 52.4297 26.2656 51.9688 26.9844C51.5078 27.6953 50.875 28.25 50.0703 28.6484C49.2734 29.0391 48.3906 29.2344 47.4219 29.2344C45.6094 29.2344 44.1797 28.6602 43.1328 27.5117C42.0859 26.3555 41.5625 24.7617 41.5625 22.7305V22.5078C41.5625 20.5547 42.082 18.9961 43.1211 17.832C44.1602 16.668 45.5859 16.0859 47.3984 16.0859C48.9844 16.0859 50.2539 16.5391 51.207 17.4453C52.168 18.3438 52.6562 19.543 52.6719 21.043H49.4961C49.4805 20.3867 49.2773 19.8555 48.8867 19.4492C48.4961 19.0352 47.9805 18.8281 47.3398 18.8281C46.5508 18.8281 45.9531 19.1172 45.5469 19.6953C45.1484 20.2656 44.9492 21.1953 44.9492 22.4844V22.8359C44.9492 24.1406 45.1484 25.0781 45.5469 25.6484C45.9453 26.2188 46.5508 26.5039 47.3633 26.5039ZM57.9102 17.7031C58.8086 16.625 59.9375 16.0859 61.2969 16.0859C64.0469 16.0859 65.4414 17.6836 65.4805 20.8789V29H62.0938V20.9727C62.0938 20.2461 61.9375 19.7109 61.625 19.3672C61.3125 19.0156 60.793 18.8398 60.0664 18.8398C59.0742 18.8398 58.3555 19.2227 57.9102 19.9883V29H54.5234V11H57.9102V17.7031ZM81.1016 14.7852H75.875V29H72.3594V14.7852H67.2031V11.9375H81.1016V14.7852ZM86.1992 17.7031C87.0977 16.625 88.2266 16.0859 89.5859 16.0859C92.3359 16.0859 93.7305 17.6836 93.7695 20.8789V29H90.3828V20.9727C90.3828 20.2461 90.2266 19.7109 89.9141 19.3672C89.6016 19.0156 89.082 18.8398 88.3555 18.8398C87.3633 18.8398 86.6445 19.2227 86.1992 19.9883V29H82.8125V11H86.1992V17.7031ZM95.7969 22.543C95.7969 21.2852 96.0391 20.1641 96.5234 19.1797C97.0078 18.1953 97.7031 17.4336 98.6094 16.8945C99.5234 16.3555 100.582 16.0859 101.785 16.0859C103.496 16.0859 104.891 16.6094 105.969 17.6562C107.055 18.7031 107.66 20.125 107.785 21.9219L107.809 22.7891C107.809 24.7344 107.266 26.2969 106.18 27.4766C105.094 28.6484 103.637 29.2344 101.809 29.2344C99.9805 29.2344 98.5195 28.6484 97.4258 27.4766C96.3398 26.3047 95.7969 24.7109 95.7969 22.6953V22.543ZM99.1836 22.7891C99.1836 23.9922 99.4102 24.9141 99.8633 25.5547C100.316 26.1875 100.965 26.5039 101.809 26.5039C102.629 26.5039 103.27 26.1914 103.73 25.5664C104.191 24.9336 104.422 23.9258 104.422 22.543C104.422 21.3633 104.191 20.4492 103.73 19.8008C103.27 19.1523 102.621 18.8281 101.785 18.8281C100.957 18.8281 100.316 19.1523 99.8633 19.8008C99.4102 20.4414 99.1836 21.4375 99.1836 22.7891ZM117.488 27.7109C116.652 28.7266 115.496 29.2344 114.02 29.2344C112.66 29.2344 111.621 28.8438 110.902 28.0625C110.191 27.2812 109.828 26.1367 109.812 24.6289V16.3203H113.199V24.5117C113.199 25.832 113.801 26.4922 115.004 26.4922C116.152 26.4922 116.941 26.0938 117.371 25.2969V16.3203H120.77V29H117.582L117.488 27.7109ZM122.832 22.5664C122.832 20.6211 123.293 19.0547 124.215 17.8672C125.145 16.6797 126.395 16.0859 127.965 16.0859C129.355 16.0859 130.438 16.5625 131.211 17.5156L131.352 16.3203H134.422V28.5781C134.422 29.6875 134.168 30.6523 133.66 31.4727C133.16 32.293 132.453 32.918 131.539 33.3477C130.625 33.7773 129.555 33.9922 128.328 33.9922C127.398 33.9922 126.492 33.8047 125.609 33.4297C124.727 33.0625 124.059 32.5859 123.605 32L125.105 29.9375C125.949 30.8828 126.973 31.3555 128.176 31.3555C129.074 31.3555 129.773 31.1133 130.273 30.6289C130.773 30.1523 131.023 29.4727 131.023 28.5898V27.9102C130.242 28.793 129.215 29.2344 127.941 29.2344C126.418 29.2344 125.184 28.6406 124.238 27.4531C123.301 26.2578 122.832 24.6758 122.832 22.707V22.5664ZM126.219 22.8125C126.219 23.9609 126.449 24.8633 126.91 25.5195C127.371 26.168 128.004 26.4922 128.809 26.4922C129.84 26.4922 130.578 26.1055 131.023 25.332V20C130.57 19.2266 129.84 18.8398 128.832 18.8398C128.02 18.8398 127.379 19.1719 126.91 19.8359C126.449 20.5 126.219 21.4922 126.219 22.8125ZM140.34 17.7031C141.238 16.625 142.367 16.0859 143.727 16.0859C146.477 16.0859 147.871 17.6836 147.91 20.8789V29H144.523V20.9727C144.523 20.2461 144.367 19.7109 144.055 19.3672C143.742 19.0156 143.223 18.8398 142.496 18.8398C141.504 18.8398 140.785 19.2227 140.34 19.9883V29H136.953V11H140.34V17.7031ZM154.52 13.2031V16.3203H156.688V18.8047H154.52V25.1328C154.52 25.6016 154.609 25.9375 154.789 26.1406C154.969 26.3438 155.312 26.4453 155.82 26.4453C156.195 26.4453 156.527 26.418 156.816 26.3633V28.9297C156.152 29.1328 155.469 29.2344 154.766 29.2344C152.391 29.2344 151.18 28.0352 151.133 25.6367V18.8047H149.281V16.3203H151.133V13.2031H154.52ZM165.441 25.4961C165.441 25.082 165.234 24.7578 164.82 24.5234C164.414 24.2812 163.758 24.0664 162.852 23.8789C159.836 23.2461 158.328 21.9648 158.328 20.0352C158.328 18.9102 158.793 17.9727 159.723 17.2227C160.66 16.4648 161.883 16.0859 163.391 16.0859C165 16.0859 166.285 16.4648 167.246 17.2227C168.215 17.9805 168.699 18.9648 168.699 20.1758H165.312C165.312 19.6914 165.156 19.293 164.844 18.9805C164.531 18.6602 164.043 18.5 163.379 18.5C162.809 18.5 162.367 18.6289 162.055 18.8867C161.742 19.1445 161.586 19.4727 161.586 19.8711C161.586 20.2461 161.762 20.5508 162.113 20.7852C162.473 21.0117 163.074 21.2109 163.918 21.3828C164.762 21.5469 165.473 21.7344 166.051 21.9453C167.84 22.6016 168.734 23.7383 168.734 25.3555C168.734 26.5117 168.238 27.4492 167.246 28.168C166.254 28.8789 164.973 29.2344 163.402 29.2344C162.34 29.2344 161.395 29.0469 160.566 28.6719C159.746 28.2891 159.102 27.7695 158.633 27.1133C158.164 26.4492 157.93 25.7344 157.93 24.9688H161.141C161.172 25.5703 161.395 26.0312 161.809 26.3516C162.223 26.6719 162.777 26.832 163.473 26.832C164.121 26.832 164.609 26.7109 164.938 26.4688C165.273 26.2188 165.441 25.8945 165.441 25.4961Z" fill="white"/>
<path d="M9.5 29C10.8807 29 12 27.8807 12 26.5C12 25.1193 10.8807 24 9.5 24C8.11929 24 7 25.1193 7 26.5C7 27.8807 8.11929 29 9.5 29Z" fill="#00AAFF"/>
<path d="M15.5 29C16.8807 29 18 27.8807 18 26.5C18 25.1193 16.8807 24 15.5 24C14.1193 24 13 25.1193 13 26.5C13 27.8807 14.1193 29 15.5 29Z" fill="#00AAFF"/>
<path d="M172.5 30C173.881 30 175 28.8807 175 27.5C175 26.1193 173.881 25 172.5 25C171.119 25 170 26.1193 170 27.5C170 28.8807 171.119 30 172.5 30Z" fill="#F1416F"/>
</svg>
